<svg width="150" height="115" viewBox="0 0 150 115" fill="none" xmlns="http://www.w3.org/2000/svg">
<path d="M126.981 9.47758C117.421 5.09082 107.169 1.85885 96.4494 0.00776506C96.2542 -0.0279603 96.0592 0.0613193 95.9586 0.239883C94.6401 2.58498 93.1796 5.64434 92.1568 8.04899C80.6275 6.32293 69.1574 6.32293 57.8645 8.04899C56.8416 5.59089 55.328 2.58498 54.0036 0.239883C53.903 0.067277 53.708 -0.0220025 53.5128 0.00776506C42.7994 1.85293 32.5473 5.08491 22.9808 9.47758C22.898 9.51329 22.827 9.57286 22.7799 9.65019C3.3337 38.7024 -1.99344 67.0406 0.619876 95.0274C0.6317 95.1643 0.708562 95.2953 0.814988 95.3786C13.6451 104.801 26.0732 110.521 38.2705 114.312C38.4657 114.372 38.6725 114.3 38.7968 114.14C41.682 110.199 44.254 106.045 46.4592 101.676C46.5894 101.42 46.4651 101.116 46.1992 101.015C42.1196 99.4677 38.235 97.5808 34.4983 95.4382C34.2027 95.2655 34.1791 94.8428 34.451 94.6404C35.2373 94.0512 36.0239 93.4381 36.7747 92.8191C36.9106 92.706 37.0999 92.6822 37.2596 92.7536C61.808 103.962 88.3847 103.962 112.643 92.7536C112.803 92.6763 112.992 92.7001 113.134 92.8132C113.885 93.4322 114.672 94.0512 115.464 94.6404C115.736 94.8428 115.718 95.2655 115.422 95.4382C111.686 97.6224 107.801 99.4677 103.716 101.009C103.45 101.11 103.331 101.42 103.462 101.676C105.714 106.039 108.286 110.193 111.118 114.134C111.236 114.3 111.449 114.372 111.644 114.312C123.901 110.521 136.329 104.801 149.159 95.3786C149.271 95.2953 149.342 95.1703 149.354 95.0334C152.482 62.6775 144.116 34.5717 127.176 9.6561C127.135 9.57286 127.064 9.51329 126.981 9.47758ZM50.1251 77.9864C42.7344 77.9864 36.6446 71.2011 36.6446 62.8681C36.6446 54.535 42.6163 47.7498 50.1251 47.7498C57.693 47.7498 63.7238 54.5946 63.6055 62.8681C63.6055 71.2011 57.6338 77.9864 50.1251 77.9864ZM99.9672 77.9864C92.5766 77.9864 86.4868 71.2011 86.4868 62.8681C86.4868 54.535 92.4583 47.7498 99.9672 47.7498C107.535 47.7498 113.566 54.5946 113.448 62.8681C113.448 71.2011 107.535 77.9864 99.9672 77.9864Z" fill="#FF0000"/>
</svg>
