<svg width="150" height="150" viewBox="0 0 150 150" fill="none" xmlns="http://www.w3.org/2000/svg">
<path fill-rule="evenodd" clip-rule="evenodd" d="M75 0C54.63 0 52.08 0.085 44.08 0.45C36.095 0.815 30.64 2.085 25.87 3.94C20.87 5.82 16.335 8.77 12.585 12.59C8.77111 16.3357 5.81929 20.8675 3.935 25.87C2.09 30.64 0.815 36.1 0.45 44.085C0.09 52.08 0 54.625 0 75C0 95.375 0.085 97.92 0.45 105.92C0.815 113.905 2.085 119.36 3.94 124.13C5.82 129.13 8.77 133.665 12.59 137.415C16.3358 141.229 20.8675 144.181 25.87 146.065C30.64 147.915 36.095 149.185 44.08 149.55C52.08 149.915 54.63 150 75 150C95.37 150 97.92 149.915 105.92 149.55C113.905 149.185 119.36 147.915 124.13 146.06C129.13 144.18 133.665 141.23 137.415 137.41C141.229 133.664 144.181 129.133 146.065 124.13C147.915 119.36 149.185 113.905 149.55 105.92C149.915 97.92 150 95.37 150 75C150 54.63 149.915 52.08 149.55 44.08C149.185 36.095 147.915 30.64 146.06 25.87C144.177 20.8653 141.225 16.3316 137.41 12.585C133.664 8.77111 129.133 5.81929 124.13 3.935C119.36 2.09 113.9 0.815 105.915 0.45C97.92 0.09 95.375 0 75 0ZM75 13.515C95.025 13.515 97.4 13.59 105.31 13.95C112.62 14.285 116.59 15.5 119.235 16.535C122.735 17.89 125.235 19.52 127.86 22.14C130.485 24.765 132.11 27.265 133.465 30.765C134.495 33.41 135.715 37.38 136.05 44.69C136.41 52.6 136.485 54.975 136.485 75C136.485 95.025 136.41 97.4 136.05 105.31C135.715 112.62 134.5 116.59 133.465 119.235C132.265 122.493 130.349 125.44 127.86 127.86C125.44 130.35 122.493 132.265 119.235 133.465C116.59 134.495 112.62 135.715 105.31 136.05C97.4 136.41 95.03 136.485 75 136.485C54.97 136.485 52.6 136.41 44.69 136.05C37.38 135.715 33.41 134.5 30.765 133.465C27.5073 132.265 24.56 130.349 22.14 127.86C19.6509 125.44 17.7356 122.493 16.535 119.235C15.505 116.59 14.285 112.62 13.95 105.31C13.59 97.4 13.515 95.025 13.515 75C13.515 54.975 13.59 52.6 13.95 44.69C14.285 37.38 15.5 33.41 16.535 30.765C17.89 27.265 19.52 24.765 22.14 22.14C24.5597 19.6502 27.507 17.7349 30.765 16.535C33.41 15.505 37.38 14.285 44.69 13.95C52.6 13.59 54.975 13.515 75 13.515V13.515Z" fill="#FF0000"/>
<path fill-rule="evenodd" clip-rule="evenodd" d="M74.9999 100.025C71.7136 100.025 68.4595 99.378 65.4233 98.1204C62.3871 96.8628 59.6284 95.0195 57.3046 92.6957C54.9808 90.3719 53.1375 87.6131 51.8799 84.577C50.6222 81.5408 49.9749 78.2867 49.9749 75.0003C49.9749 71.714 50.6222 68.4598 51.8799 65.4237C53.1375 62.3875 54.9808 59.6288 57.3046 57.305C59.6284 54.9812 62.3871 53.1379 65.4233 51.8802C68.4595 50.6226 71.7136 49.9753 74.9999 49.9753C81.637 49.9753 88.0022 52.6119 92.6953 57.305C97.3884 61.9981 100.025 68.3633 100.025 75.0003C100.025 81.6374 97.3884 88.0026 92.6953 92.6957C88.0022 97.3888 81.637 100.025 74.9999 100.025V100.025ZM74.9999 36.4503C64.7758 36.4503 54.9705 40.5118 47.741 47.7413C40.5115 54.9709 36.45 64.7762 36.45 75.0003C36.45 85.2244 40.5115 95.0298 47.741 102.259C54.9705 109.489 64.7758 113.55 74.9999 113.55C85.224 113.55 95.0294 109.489 102.259 102.259C109.488 95.0298 113.55 85.2244 113.55 75.0003C113.55 64.7762 109.488 54.9709 102.259 47.7413C95.0294 40.5118 85.224 36.4503 74.9999 36.4503V36.4503ZM124.765 35.7503C124.765 38.1671 123.805 40.4849 122.096 42.1938C120.387 43.9028 118.069 44.8628 115.652 44.8628C113.236 44.8628 110.918 43.9028 109.209 42.1938C107.5 40.4849 106.54 38.1671 106.54 35.7503C106.54 33.3335 107.5 31.0157 109.209 29.3068C110.918 27.5979 113.236 26.6378 115.652 26.6378C118.069 26.6378 120.387 27.5979 122.096 29.3068C123.805 31.0157 124.765 33.3335 124.765 35.7503" fill="#FF0000"/>
</svg>
